# xmcd
#
# Track frame offsets:
#	150
#	13572
#	29775
#	48597
#	63052
#	80160
#	92300
#	109305
#	129717
#	148017
#	160895
#	172360
#	186920
#	199760
#	213777
#	228482
#	241257
#	253237
#	265035
#	280955
#
# Disc length: 3983 seconds
#
# Revision: 1
# Processed by: cddbd v1.4PL0 Copyright (c) Steve Scherf et al.
# Submitted via: audiograbber 1.80
#
DISCID=290f8d14
DTITLE=Ike and Tina Turner - The Sensational Ike and Tina Turner Volume 1
DYEAR=1900
DGENRE=
TTITLE0=Nutbush City Limits
TTITLE1=Golden Empire
TTITLE2=Something
TTITLE3=Oh, My, My(Can You Boogie)
TTITLE4=Stormy Weather
TTITLE5=You Don't Love Me(Yes, I Know)
TTITLE6=Stand By Me
TTITLE7=Give Me A Chance
TTITLE8=I Idolise You
TTITLE9=Put On Your Tight Pants
TTITLE10=Ain'tThat A Shame
TTITLE11=Rockin' And Rollin'
TTITLE12=Shake
TTITLE13=I Wish It Would Rain (Live)
TTITLE14=If You Can Hully Gully
TTITLE15=Betcha Can't Kiss Me (Just One Time)
TTITLE16=I Need A Man
TTITLE17=! Wanna Jump
TTITLE18=I Can't Stop Loving You (Live)
TTITLE19=River Deep, Mountain High (Early)
EXTD=
EXTT0=
EXTT1=
EXTT2=
EXTT3=
EXTT4=
EXTT5=
EXTT6=
EXTT7=
EXTT8=
EXTT9=
EXTT10=
EXTT11=
EXTT12=
EXTT13=
EXTT14=
EXTT15=
EXTT16=
EXTT17=
EXTT18=
EXTT19=
PLAYORDER=
